<svg width="14" height="13" viewBox="0 0 14 13" fill="none" xmlns="http://www.w3.org/2000/svg">
<path d="M12.9689 5.61691C13.4517 5.61691 13.6533 4.9966 13.2611 4.71066L7.29393 0.370032C7.20871 0.307598 7.10582 0.273939 7.00018 0.273939C6.89454 0.273939 6.79165 0.307598 6.70643 0.370032L0.739241 4.71066C0.347053 4.99503 0.548616 5.61691 1.03299 5.61691H2.00018V11.4607H0.875178C0.806428 11.4607 0.750178 11.5169 0.750178 11.5857V12.3982C0.750178 12.4669 0.806428 12.5232 0.875178 12.5232H13.1252C13.1939 12.5232 13.2502 12.4669 13.2502 12.3982V11.5857C13.2502 11.5169 13.1939 11.4607 13.1252 11.4607H12.0002V5.61691H12.9689ZM7.00018 1.47159L11.2361 4.55285H2.76424L7.00018 1.47159ZM3.12518 5.61691H4.9533V11.4607H3.12518V5.61691ZM6.0783 5.61691H7.90643V11.4607H6.0783V5.61691ZM10.8752 11.4607H9.03143V5.61691H10.8752V11.4607Z" fill="#262626"/>
</svg>
