<svg width="16" height="18" viewBox="0 0 16 18" fill="none" xmlns="http://www.w3.org/2000/svg">
<path d="M13.7419 2.22454C11.7181 0.200708 8.42241 0.200708 6.40073 2.22454L0.793308 7.82766C0.756785 7.86418 0.737449 7.9136 0.737449 7.96516C0.737449 8.01672 0.756785 8.06614 0.793308 8.10266L1.58608 8.89543C1.62232 8.93151 1.67137 8.95177 1.72251 8.95177C1.77364 8.95177 1.8227 8.93151 1.85893 8.89543L7.46635 3.29231C8.16245 2.59622 9.08842 2.21379 10.0724 2.21379C11.0564 2.21379 11.9824 2.59622 12.6763 3.29231C13.3724 3.9884 13.7548 4.91438 13.7548 5.89622C13.7548 6.8802 13.3724 7.80403 12.6763 8.50012L6.96147 14.2128L6.0355 15.1388C5.16968 16.0046 3.76245 16.0046 2.89663 15.1388C2.47768 14.7198 2.2478 14.1634 2.2478 13.5704C2.2478 12.9775 2.47768 12.421 2.89663 12.0021L8.56636 6.3345C8.7103 6.1927 8.89936 6.11321 9.10132 6.11321H9.10346C9.30542 6.11321 9.49233 6.1927 9.63413 6.3345C9.77807 6.47844 9.85542 6.6675 9.85542 6.86946C9.85542 7.06926 9.77592 7.25833 9.63413 7.40012L4.99995 12.03C4.96343 12.0665 4.94409 12.1159 4.94409 12.1675C4.94409 12.2191 4.96343 12.2685 4.99995 12.305L5.79272 13.0978C5.82896 13.1339 5.87801 13.1541 5.92915 13.1541C5.98028 13.1541 6.02934 13.1339 6.06557 13.0978L10.6976 8.46575C11.1251 8.03821 11.3593 7.47102 11.3593 6.86731C11.3593 6.2636 11.123 5.69426 10.6976 5.26887C9.8146 4.38586 8.37944 4.38801 7.49643 5.26887L6.94643 5.82102L1.82885 10.9364C1.48152 11.2817 1.20619 11.6926 1.01884 12.1451C0.83149 12.5976 0.735844 13.0828 0.737449 13.5726C0.737449 14.5673 1.12632 15.5019 1.82885 16.2044C2.55718 16.9306 3.51108 17.2937 4.46499 17.2937C5.41889 17.2937 6.3728 16.9306 7.09897 16.2044L13.7419 9.56575C14.7195 8.58606 15.2609 7.28196 15.2609 5.89622C15.263 4.50832 14.7216 3.20422 13.7419 2.22454Z" fill="#8C8C8C"/>
</svg>
