<svg width="15" height="14" viewBox="0 0 15 14" fill="none" xmlns="http://www.w3.org/2000/svg">
<path d="M7.5 0.4375C3.87598 0.4375 0.9375 3.37598 0.9375 7C0.9375 10.624 3.87598 13.5625 7.5 13.5625C11.124 13.5625 14.0625 10.624 14.0625 7C14.0625 3.37598 11.124 0.4375 7.5 0.4375ZM7.5 12.4492C4.49121 12.4492 2.05078 10.0088 2.05078 7C2.05078 3.99121 4.49121 1.55078 7.5 1.55078C10.5088 1.55078 12.9492 3.99121 12.9492 7C12.9492 10.0088 10.5088 12.4492 7.5 12.4492ZM9.22412 3.82715C8.99121 3.77588 8.72022 3.74805 8.41406 3.74805C6.85107 3.74805 5.79346 4.56396 5.50488 5.94385H5.03906C4.97461 5.94385 4.92188 5.99658 4.92188 6.06104V6.45947C4.92188 6.52393 4.97461 6.57666 5.03906 6.57666H5.42578C5.42139 6.63672 5.42139 6.69971 5.42139 6.76416V7.30469H5.03906C4.97461 7.30469 4.92188 7.35742 4.92188 7.42188V7.82031C4.92188 7.88477 4.97461 7.9375 5.03906 7.9375H5.48145C5.7334 9.39062 6.80566 10.252 8.41406 10.252C8.72022 10.252 8.99121 10.2271 9.22412 10.1772C9.27832 10.1655 9.31787 10.1187 9.31787 10.063V9.43604C9.31787 9.36279 9.25049 9.30713 9.17871 9.32178C8.96338 9.36279 8.71143 9.38184 8.41992 9.38184C7.4165 9.38184 6.74268 8.8457 6.51855 7.9375H8.43164C8.49609 7.9375 8.54883 7.88477 8.54883 7.82031V7.42188C8.54883 7.35742 8.49609 7.30469 8.43164 7.30469H6.43359V6.77734C6.43359 6.7085 6.43359 6.63965 6.43799 6.5752H8.42871C8.49316 6.5752 8.5459 6.52246 8.5459 6.45801V6.05957C8.5459 5.99512 8.49316 5.94238 8.42871 5.94238H6.54932C6.80127 5.10889 7.46191 4.61816 8.41846 4.61816C8.70996 4.61816 8.96191 4.64014 9.17578 4.68262C9.19276 4.68608 9.2103 4.68574 9.22713 4.68161C9.24396 4.67749 9.25967 4.66968 9.27312 4.65875C9.28657 4.64782 9.29743 4.63404 9.30491 4.61841C9.3124 4.60278 9.31632 4.58569 9.31641 4.56836V3.94141C9.31641 3.88574 9.27832 3.83887 9.22412 3.82715Z" fill="#262626"/>
</svg>
