<svg width="16" height="15" viewBox="0 0 16 15" fill="none" xmlns="http://www.w3.org/2000/svg">
<path d="M14.7894 7.29021L8.75192 1.25583L8.34723 0.851146C8.25502 0.759547 8.13033 0.708138 8.00036 0.708138C7.87039 0.708138 7.74569 0.759547 7.65348 0.851146L1.2113 7.29021C1.11681 7.38432 1.04214 7.49641 0.991689 7.61986C0.941237 7.7433 0.916026 7.87561 0.917545 8.00896C0.923795 8.55896 1.38161 8.99802 1.93161 8.99802H2.59567V14.0871H13.405V8.99802H14.0832C14.3504 8.99802 14.6019 8.89333 14.791 8.70427C14.8841 8.61148 14.9578 8.50114 15.008 8.37964C15.0581 8.25814 15.0837 8.1279 15.0832 7.99646C15.0832 7.73083 14.9785 7.47927 14.7894 7.29021ZM8.87536 12.9621H7.12536V9.77458H8.87536V12.9621ZM12.28 7.87302V12.9621H9.87536V9.39958C9.87536 9.05427 9.59567 8.77458 9.25036 8.77458H6.75036C6.40505 8.77458 6.12536 9.05427 6.12536 9.39958V12.9621H3.72067V7.87302H2.22067L8.00192 2.09646L8.36286 2.4574L13.7816 7.87302H12.28Z" fill="#262626"/>
</svg>
