<svg width="12" height="15" viewBox="0 0 12 15" fill="none" xmlns="http://www.w3.org/2000/svg">
<path d="M1.015 11.8362C1.015 12.1127 1.23844 12.3362 1.515 12.3362H10.4837C10.7603 12.3362 10.9837 12.1127 10.9837 11.8362V8.19556C10.9837 5.44243 8.7525 3.21118 5.99937 3.21118C3.24625 3.21118 1.015 5.44243 1.015 8.19556V11.8362ZM2.14 8.19556C2.14 6.06431 3.86812 4.33618 5.99937 4.33618C8.13062 4.33618 9.85875 6.06431 9.85875 8.19556V11.2112H4.31187V8.53931C4.31187 8.45337 4.24156 8.38306 4.15562 8.38306H3.46812C3.38219 8.38306 3.31187 8.45337 3.31187 8.53931V11.2112H2.14V8.19556ZM1.38844 4.25024L2.00719 3.63149C2.05562 3.58306 2.05562 3.50337 2.00719 3.45493L0.946249 2.39399C0.922756 2.37073 0.89103 2.35768 0.857968 2.35768C0.824906 2.35768 0.79318 2.37073 0.769687 2.39399L0.150937 3.01274C0.127674 3.03624 0.114624 3.06796 0.114624 3.10103C0.114624 3.13409 0.127674 3.16581 0.150937 3.18931L1.21187 4.25024C1.26031 4.29868 1.33844 4.29868 1.38844 4.25024ZM11.8509 3.01274L11.2322 2.39399C11.2087 2.37073 11.177 2.35768 11.1439 2.35768C11.1108 2.35768 11.0791 2.37073 11.0556 2.39399L9.99469 3.45493C9.97142 3.47843 9.95837 3.51015 9.95837 3.54321C9.95837 3.57627 9.97142 3.608 9.99469 3.63149L10.6134 4.25024C10.6619 4.29868 10.7416 4.29868 10.79 4.25024L11.8509 3.18931C11.8994 3.13931 11.8994 3.06118 11.8509 3.01274ZM10.9994 13.3362H0.999374C0.722812 13.3362 0.499374 13.5596 0.499374 13.8362V14.2112C0.499374 14.2799 0.555624 14.3362 0.624374 14.3362H11.3744C11.4431 14.3362 11.4994 14.2799 11.4994 14.2112V13.8362C11.4994 13.5596 11.2759 13.3362 10.9994 13.3362ZM5.56187 2.21118H6.43687C6.50562 2.21118 6.56187 2.15493 6.56187 2.08618V0.586182C6.56187 0.517432 6.50562 0.461182 6.43687 0.461182H5.56187C5.49312 0.461182 5.43687 0.517432 5.43687 0.586182V2.08618C5.43687 2.15493 5.49312 2.21118 5.56187 2.21118Z" fill="#262626"/>
</svg>
