<svg width="12" height="15" viewBox="0 0 12 15" fill="none" xmlns="http://www.w3.org/2000/svg">
<path d="M1.01503 11.8362C1.01503 12.1127 1.23847 12.3362 1.51503 12.3362H10.4838C10.7603 12.3362 10.9838 12.1127 10.9838 11.8362V8.19556C10.9838 5.44243 8.75253 3.21118 5.99941 3.21118C3.24628 3.21118 1.01503 5.44243 1.01503 8.19556V11.8362ZM2.14003 8.19556C2.14003 6.06431 3.86816 4.33618 5.99941 4.33618C8.13066 4.33618 9.85878 6.06431 9.85878 8.19556V11.2112H4.31191V8.53931C4.31191 8.45337 4.24159 8.38306 4.15566 8.38306H3.46816C3.38222 8.38306 3.31191 8.45337 3.31191 8.53931V11.2112H2.14003V8.19556ZM1.38847 4.25024L2.00722 3.63149C2.05565 3.58306 2.05565 3.50337 2.00722 3.45493L0.94628 2.39399C0.922786 2.37073 0.891061 2.35768 0.857998 2.35768C0.824936 2.35768 0.793211 2.37073 0.769717 2.39399L0.150967 3.01274C0.127704 3.03624 0.114655 3.06796 0.114655 3.10103C0.114655 3.13409 0.127704 3.16581 0.150967 3.18931L1.2119 4.25024C1.26034 4.29868 1.33847 4.29868 1.38847 4.25024ZM11.851 3.01274L11.2322 2.39399C11.2087 2.37073 11.177 2.35768 11.1439 2.35768C11.1109 2.35768 11.0791 2.37073 11.0557 2.39399L9.99472 3.45493C9.97146 3.47843 9.95841 3.51015 9.95841 3.54321C9.95841 3.57627 9.97146 3.608 9.99472 3.63149L10.6135 4.25024C10.6619 4.29868 10.7416 4.29868 10.79 4.25024L11.851 3.18931C11.8994 3.13931 11.8994 3.06118 11.851 3.01274ZM10.9994 13.3362H0.999405C0.722842 13.3362 0.499405 13.5596 0.499405 13.8362V14.2112C0.499405 14.2799 0.555655 14.3362 0.624405 14.3362H11.3744C11.4432 14.3362 11.4994 14.2799 11.4994 14.2112V13.8362C11.4994 13.5596 11.276 13.3362 10.9994 13.3362ZM5.56191 2.21118H6.43691C6.50566 2.21118 6.56191 2.15493 6.56191 2.08618V0.586182C6.56191 0.517432 6.50566 0.461182 6.43691 0.461182H5.56191C5.49316 0.461182 5.43691 0.517432 5.43691 0.586182V2.08618C5.43691 2.15493 5.49316 2.21118 5.56191 2.21118Z" fill="#262626"/>
</svg>
