<svg width="13" height="12" viewBox="0 0 13 12" fill="none" xmlns="http://www.w3.org/2000/svg">
<path d="M11.8797 9.83438H11.0391C10.9734 9.83438 10.9187 9.88906 10.9187 9.95469V10.9203H1.07969V1.07969H10.9203V2.04531C10.9203 2.11094 10.975 2.16563 11.0406 2.16563H11.8813C11.9469 2.16563 12.0016 2.1125 12.0016 2.04531V0.479687C12.0016 0.214062 11.7875 0 11.5219 0H0.479687C0.214062 0 0 0.214062 0 0.479687V11.5203C0 11.7859 0.214062 12 0.479687 12H11.5203C11.7859 12 12 11.7859 12 11.5203V9.95469C12 9.8875 11.9453 9.83438 11.8797 9.83438ZM12.0938 5.4375H7.1875V4.25C7.1875 4.14531 7.06563 4.08594 6.98438 4.15156L4.76719 5.90156C4.75225 5.91326 4.74016 5.92819 4.73185 5.94525C4.72355 5.96231 4.71923 5.98103 4.71923 6C4.71923 6.01897 4.72355 6.03769 4.73185 6.05475C4.74016 6.0718 4.75225 6.08674 4.76719 6.09844L6.98438 7.84844C7.06719 7.91406 7.1875 7.85469 7.1875 7.75V6.5625H12.0938C12.1625 6.5625 12.2188 6.50625 12.2188 6.4375V5.5625C12.2188 5.49375 12.1625 5.4375 12.0938 5.4375Z" fill="#262626"/>
</svg>
