<svg width="31" height="34" viewBox="0 0 31 34" fill="none" xmlns="http://www.w3.org/2000/svg">
<path d="M12.6057 0.227493L11.9922 0.293557L11.673 1.66317L10.7525 0.656908L10.1633 0.917939L11.3909 2.85151L10.8017 5.40059L9.70942 6.08056L8.62928 6.74684L6.23604 6.01531L5.27844 3.92061L4.77543 4.31216L5.1438 5.6721L3.867 5.27975L3.4888 5.8292L5.46451 6.84835L6.13998 9.37166L5.51141 10.5552L4.88587 11.6927L2.47977 12.3332L0.664412 11.0394L0.418582 11.6533L1.37618 12.6337L0.0903047 12.9737L0.014665 13.6408L2.19914 13.4837L3.97895 15.3013V17.9809L2.39581 19.6018L0.00256348 19.3013L0.0388702 19.9547L1.5736 20.4518L0.419338 21.6281L0.665168 22.2557L2.67794 20.8055L4.77695 21.4855L5.35332 22.6883L5.91835 23.8646L5.01067 26.6843L3.1575 27.6511L3.52586 28.174L4.6302 27.834L4.30874 28.8435L4.79964 29.2874L5.72017 27.5093L8.28588 26.7254L9.37811 27.4054L10.4605 28.0604L11.0959 30.7771L9.94239 32.5946L10.5074 32.8556L11.3538 31.9146L11.6488 33.1699L12.2865 33.2609L12.1397 31.0518L13.9437 29.0642H16.4595L18.1758 30.9753L18.0283 33.2899L18.6425 33.2238L18.9617 31.8542L19.8822 32.8605L20.4714 32.5995L19.2438 30.6659L19.8489 28.1168L20.9412 27.4368L22.0213 26.7834L24.4145 27.515L25.3721 29.5936L25.863 29.202L25.4947 27.8421L26.7715 28.2344L27.1497 27.685L25.1732 26.6658L24.4993 24.1385L25.1346 22.9751L25.7481 21.8246L28.5467 21.0794L30.1912 22.2557L30.4491 21.6547L29.6171 20.7918L30.5504 20.5453L30.6359 19.8782L28.8561 20.0087L26.8895 17.9946V15.3279L28.6814 13.4845L30.8538 13.6416L30.7781 12.9882L29.4922 12.6483L30.4521 11.667L30.1942 11.0386L28.3788 12.3453L25.9848 11.7185L25.3616 10.5552L24.7353 9.40469L25.4228 6.8556L27.3743 5.83645L27.006 5.29989L25.7299 5.69224L26.0975 4.3331L25.5945 3.93028L24.6369 6.02497L22.2558 6.75651L21.1635 6.09023L20.0834 5.42315L19.4821 2.84506L20.6976 0.922773L20.1326 0.661742L19.212 1.6817L18.8928 0.312086L18.2552 0.231521L18.4148 2.55905L16.6932 4.45073H14.1896L12.4589 2.54214L12.6057 0.227493ZM15.3922 0.698801C15.0033 0.698801 14.6302 0.863385 14.3552 1.15635C14.0801 1.44931 13.9256 1.84665 13.9256 2.26096C13.9256 2.67527 14.0801 3.07262 14.3552 3.36558C14.6302 3.65854 15.0033 3.82312 15.3922 3.82312C15.5848 3.82312 15.7756 3.78272 15.9535 3.70421C16.1314 3.62571 16.2931 3.51064 16.4293 3.36558C16.5655 3.22052 16.6735 3.04831 16.7472 2.85878C16.8209 2.66925 16.8589 2.46611 16.8589 2.26096C16.8589 2.05582 16.8209 1.85268 16.7472 1.66315C16.6735 1.47362 16.5655 1.30141 16.4293 1.15635C16.2931 1.01129 16.1314 0.89622 15.9535 0.817714C15.7756 0.739208 15.5848 0.698801 15.3922 0.698801ZM22.0569 2.60739C21.8197 2.6243 21.5902 2.70358 21.3889 2.83813C21.1876 2.97269 21.0208 3.15832 20.9033 3.37841C20.7049 3.73549 20.6477 4.16189 20.7443 4.56389C20.8409 4.9659 21.0834 5.3106 21.4185 5.52225C21.7591 5.72961 22.1628 5.78552 22.5419 5.67782C22.921 5.57013 23.2449 5.30752 23.4433 4.94701C23.5719 4.69981 23.6357 4.42034 23.628 4.13787C23.6203 3.8554 23.5415 3.58032 23.3997 3.34144C23.258 3.10257 23.0585 2.90869 22.8223 2.78011C22.586 2.65154 22.3217 2.59299 22.0569 2.61062V2.60739ZM8.46968 2.64606C8.27451 2.67667 8.0869 2.74785 7.91751 2.85553C7.75079 2.95611 7.60443 3.09089 7.4869 3.25207C7.36937 3.41326 7.28301 3.59766 7.23279 3.79461C7.18257 3.99156 7.1695 4.19716 7.19432 4.39953C7.21915 4.60189 7.28139 4.79701 7.37744 4.9736C7.50955 5.21806 7.70139 5.41981 7.93256 5.5574C8.16374 5.69499 8.4256 5.76327 8.6903 5.75499C8.95501 5.7467 9.21266 5.66216 9.43584 5.51034C9.65903 5.35853 9.83942 5.14512 9.95781 4.89282C10.0762 4.64051 10.1282 4.35875 10.1082 4.07749C10.0883 3.79623 9.99712 3.52599 9.84446 3.29551C9.6918 3.06503 9.48335 2.88293 9.24127 2.76857C8.9992 2.65421 8.73254 2.61188 8.46968 2.64606ZM12.3356 4.35888L13.7962 6.64694L13.7841 8.52895H17.0858V6.64694L18.523 4.35888L18.7053 7.11744L17.8089 8.72875L20.6832 10.4931L21.5667 8.87215L23.8866 7.66931L22.7444 10.137L21.2097 11.0651L22.8654 14.1113L24.3873 13.1703L26.9772 13.3532L24.8321 14.9057L23.0644 14.8799V18.4095H24.8321L27.2253 20.1223L24.1695 20.3575L22.6461 19.4061L20.9888 22.4676L22.5236 23.3957L23.665 25.8795L21.3201 24.6638L20.4609 23.0299L17.5865 24.7951L18.4708 26.4161L18.2991 29.1609L16.8506 26.8737L16.8627 25.0038H13.5512V26.8737L12.0164 29.3027L11.822 26.3742L12.7176 24.7532L9.8554 22.988L8.97117 24.6227L6.56583 25.8771L7.92734 23.237L9.51275 22.3983L7.99996 19.2611L6.42892 20.1102L4.06064 19.8097L6.03635 18.3982L7.80405 18.4111V14.8831H6.03937L3.8912 13.3524L6.48111 13.1566L7.99391 14.1105L9.65117 11.0643L8.1293 10.1233L6.98487 7.65481L9.31685 8.85765L10.1882 10.4915L13.0482 8.72714L12.1639 7.10616L12.3356 4.36049V4.35888ZM27.2238 7.86267C26.8959 7.83546 26.5689 7.92594 26.2949 8.11969C26.0209 8.31344 25.8156 8.59931 25.7119 8.93174C25.6081 9.26417 25.6119 9.62402 25.7224 9.95394C25.833 10.2839 26.0441 10.5649 26.322 10.7521C26.6 10.9394 26.9288 11.0222 27.2561 10.9873C27.5833 10.9525 27.8902 10.8019 28.1278 10.5597C28.3654 10.3174 28.52 9.99744 28.567 9.65072C28.614 9.30401 28.5507 8.95051 28.3871 8.64657C28.2685 8.42426 28.1003 8.23647 27.8975 8.09976C27.6946 7.96305 27.4632 7.88163 27.2238 7.86267ZM3.60907 7.91504C3.36863 7.93738 3.1369 8.02166 2.93384 8.1606C2.73078 8.29955 2.56249 8.489 2.44346 8.71264C2.34648 8.88835 2.28323 9.08283 2.25737 9.28478C2.23151 9.48674 2.24356 9.69215 2.29281 9.88911C2.34207 10.0861 2.42755 10.2706 2.5443 10.4321C2.66105 10.5936 2.80675 10.7288 2.97294 10.8299C3.13996 10.9386 3.3257 11.0106 3.51923 11.0417C3.71275 11.0729 3.91018 11.0625 4.09989 11.0113C4.28961 10.96 4.46779 10.8689 4.62398 10.7432C4.78017 10.6176 4.91121 10.46 5.0094 10.2796C5.10759 10.0993 5.17095 9.89988 5.19576 9.69309C5.22058 9.4863 5.20634 9.27631 5.1539 9.07547C5.10145 8.87462 5.01184 8.68696 4.89035 8.52352C4.76885 8.36007 4.61791 8.22414 4.4464 8.1237C4.19501 7.96677 3.90509 7.89406 3.61436 7.91504H3.60907ZM28.9544 15.0523C28.7616 15.0512 28.5704 15.0905 28.3918 15.1681C28.2133 15.2458 28.0509 15.3602 27.9139 15.5047C27.7768 15.6493 27.668 15.8213 27.5934 16.0107C27.5189 16.2002 27.4802 16.4034 27.4795 16.6088C27.4795 17.0232 27.634 17.4205 27.909 17.7135C28.1841 18.0064 28.5571 18.171 28.9461 18.171C29.3351 18.171 29.7082 18.0064 29.9832 17.7135C30.2583 17.4205 30.4128 17.0232 30.4128 16.6088C30.4134 16.4045 30.3761 16.2021 30.303 16.0132C30.23 15.8243 30.1227 15.6526 29.9872 15.5079C29.8517 15.3633 29.6907 15.2486 29.5135 15.1704C29.3362 15.0922 29.1463 15.0521 28.9544 15.0523ZM1.91322 15.1184C1.62367 15.1197 1.34094 15.2122 1.10068 15.3843C0.860419 15.5565 0.673375 15.8005 0.563118 16.0857C0.452861 16.3709 0.424327 16.6845 0.481111 16.9869C0.537895 17.2893 0.677456 17.5671 0.882206 17.7852C1.08696 18.0032 1.34773 18.1519 1.63167 18.2124C1.91561 18.2728 2.21 18.2425 2.47775 18.125C2.7455 18.0076 2.97462 17.8084 3.13623 17.5525C3.29785 17.2965 3.38473 16.9954 3.38593 16.687C3.38673 16.4808 3.34918 16.2764 3.27546 16.0857C3.20173 15.895 3.09328 15.7217 2.95637 15.5759C2.81946 15.4301 2.65679 15.3146 2.47775 15.2361C2.29871 15.1575 2.10685 15.1175 1.91322 15.1184ZM3.41089 22.1517C3.21767 22.1673 3.0295 22.2249 2.85796 22.3209C2.68704 22.4153 2.53527 22.5447 2.41131 22.7016C2.28735 22.8585 2.19365 23.0399 2.13556 23.2354C2.07746 23.4309 2.05611 23.6367 2.07273 23.841C2.08936 24.0453 2.14362 24.2441 2.23242 24.4261C2.31761 24.6082 2.43593 24.7705 2.58051 24.9035C2.72509 25.0366 2.89305 25.1376 3.07463 25.2009C3.25621 25.2642 3.44778 25.2884 3.63822 25.2721C3.82865 25.2558 4.01415 25.1994 4.18393 25.1061C4.48839 24.9439 4.73039 24.6739 4.86846 24.3425C5.00652 24.0111 5.03204 23.6388 4.94065 23.2895C4.84926 22.9403 4.64664 22.6357 4.36754 22.4281C4.08844 22.2205 3.75023 22.1228 3.41089 22.1517ZM26.829 22.474C26.4765 22.4975 26.1437 22.655 25.8912 22.918C25.6387 23.181 25.4833 23.5318 25.4534 23.9066C25.4235 24.2814 25.521 24.6552 25.7282 24.9598C25.9353 25.2644 26.2384 25.4796 26.5821 25.5661C26.9257 25.6526 27.2871 25.6047 27.6004 25.4311C27.9137 25.2576 28.158 24.9698 28.2888 24.6204C28.4196 24.2711 28.4281 23.8832 28.3129 23.5277C28.1977 23.1721 27.9663 22.8725 27.661 22.6835C27.4095 22.5295 27.1207 22.4583 26.8312 22.4788L26.829 22.474ZM8.27302 27.7599C7.95815 27.7815 7.65826 27.9109 7.418 28.1287C7.17775 28.3466 7.00997 28.6412 6.93967 28.9688C6.86936 29.2965 6.90028 29.6395 7.02782 29.9469C7.15536 30.2543 7.3727 30.5096 7.64748 30.6747C7.81327 30.7771 7.99646 30.8433 8.18645 30.8698C8.37644 30.8962 8.56947 30.8823 8.75438 30.8288C8.93929 30.7753 9.11242 30.6833 9.26375 30.5582C9.41508 30.433 9.54162 30.2771 9.63605 30.0995C9.83185 29.7402 9.88607 29.3129 9.78685 28.9112C9.68762 28.5094 9.44302 28.1658 9.10657 27.9557C8.85406 27.8027 8.56406 27.7344 8.27453 27.7599H8.27302ZM21.8125 27.7599C21.618 27.7851 21.4302 27.8517 21.2604 27.9557C20.9218 28.1672 20.6753 28.5123 20.5742 28.9163C20.4731 29.3202 20.5256 29.7503 20.7203 30.1132C20.9193 30.4698 21.2429 30.7278 21.6202 30.8306C21.9975 30.9335 22.3977 30.8728 22.7331 30.6619C22.8993 30.5607 23.045 30.4255 23.1618 30.2639C23.2785 30.1023 23.364 29.9177 23.4133 29.7206C23.4625 29.5236 23.4745 29.3181 23.4487 29.1161C23.4228 28.9141 23.3595 28.7196 23.2626 28.5438C23.1192 28.2762 22.9052 28.0592 22.6472 27.9199C22.3892 27.7805 22.0984 27.7249 21.811 27.7599H21.8125ZM15.2462 29.6935C14.8545 29.6971 14.4799 29.8654 14.2041 30.1617C13.9283 30.4581 13.7735 30.8585 13.7735 31.2758C13.7735 31.6901 13.9281 32.0874 14.2031 32.3804C14.4782 32.6733 14.8512 32.8379 15.2402 32.8379C15.6292 32.8379 16.0022 32.6733 16.2773 32.3804C16.5523 32.0874 16.7069 31.6901 16.7069 31.2758C16.7089 30.8598 16.5562 30.46 16.2822 30.1636C16.0082 29.8673 15.6352 29.6985 15.2447 29.6943L15.2462 29.6935Z" fill="#5398DF"/>
</svg>
