<svg width="14" height="13" viewBox="0 0 14 13" fill="none" xmlns="http://www.w3.org/2000/svg">
<path d="M3.02656 10.1487C3.05781 10.1487 3.08906 10.1456 3.12031 10.1409L5.74844 9.67993C5.77969 9.67368 5.80938 9.65962 5.83125 9.63618L12.4547 3.01274C12.4692 2.99829 12.4807 2.98112 12.4885 2.96222C12.4963 2.94331 12.5004 2.92305 12.5004 2.90259C12.5004 2.88212 12.4963 2.86186 12.4885 2.84296C12.4807 2.82406 12.4692 2.80689 12.4547 2.79243L9.85781 0.193994C9.82813 0.164307 9.78906 0.148682 9.74687 0.148682C9.70469 0.148682 9.66563 0.164307 9.63594 0.193994L3.0125 6.81743C2.98906 6.84087 2.975 6.86899 2.96875 6.90024L2.50781 9.52837C2.49261 9.61207 2.49804 9.69822 2.52364 9.77936C2.54923 9.86049 2.59421 9.93416 2.65469 9.99399C2.75781 10.094 2.8875 10.1487 3.02656 10.1487V10.1487ZM4.07969 7.42368L9.74687 1.75806L10.8922 2.90337L5.225 8.56899L3.83594 8.81431L4.07969 7.42368V7.42368ZM12.75 11.4612H1.25C0.973437 11.4612 0.75 11.6846 0.75 11.9612V12.5237C0.75 12.5924 0.80625 12.6487 0.875 12.6487H13.125C13.1938 12.6487 13.25 12.5924 13.25 12.5237V11.9612C13.25 11.6846 13.0266 11.4612 12.75 11.4612Z" fill="#262626"/>
</svg>
