<svg width="12" height="13" viewBox="0 0 12 13" fill="none" xmlns="http://www.w3.org/2000/svg">
<path d="M11.4137 10.3299C11.1189 9.63176 10.6912 8.99759 10.1543 8.46274C9.61904 7.92635 8.98497 7.49869 8.28711 7.20337C8.28086 7.20024 8.27461 7.19868 8.26836 7.19556C9.2418 6.49243 9.87461 5.34712 9.87461 4.05493C9.87461 1.91431 8.14024 0.179932 5.99961 0.179932C3.85899 0.179932 2.12461 1.91431 2.12461 4.05493C2.12461 5.34712 2.75742 6.49243 3.73086 7.19712C3.72461 7.20024 3.71836 7.20181 3.71211 7.20493C3.01211 7.50024 2.38399 7.92368 1.84492 8.46431C1.30853 8.99957 0.880869 9.63364 0.585549 10.3315C0.295428 11.0147 0.138959 11.7472 0.124612 12.4893C0.124195 12.506 0.12712 12.5226 0.133215 12.5381C0.13931 12.5536 0.148451 12.5678 0.1601 12.5797C0.171749 12.5917 0.18567 12.6012 0.201043 12.6076C0.216416 12.6141 0.23293 12.6174 0.249612 12.6174H1.18711C1.25586 12.6174 1.31055 12.5627 1.31211 12.4956C1.34336 11.2893 1.82774 10.1596 2.68399 9.30337C3.56992 8.41743 4.74649 7.92993 5.99961 7.92993C7.25274 7.92993 8.4293 8.41743 9.31524 9.30337C10.1715 10.1596 10.6559 11.2893 10.6871 12.4956C10.6887 12.5643 10.7434 12.6174 10.8121 12.6174H11.7496C11.7663 12.6174 11.7828 12.6141 11.7982 12.6076C11.8136 12.6012 11.8275 12.5917 11.8391 12.5797C11.8508 12.5678 11.8599 12.5536 11.866 12.5381C11.8721 12.5226 11.875 12.506 11.8746 12.4893C11.859 11.7424 11.7043 11.0159 11.4137 10.3299ZM5.99961 6.74243C5.28242 6.74243 4.60742 6.46274 4.09961 5.95493C3.5918 5.44712 3.31211 4.77212 3.31211 4.05493C3.31211 3.33774 3.5918 2.66274 4.09961 2.15493C4.60742 1.64712 5.28242 1.36743 5.99961 1.36743C6.7168 1.36743 7.3918 1.64712 7.89961 2.15493C8.40742 2.66274 8.68711 3.33774 8.68711 4.05493C8.68711 4.77212 8.40742 5.44712 7.89961 5.95493C7.3918 6.46274 6.7168 6.74243 5.99961 6.74243Z" fill="#262626"/>
</svg>
