<svg width="12" height="15" viewBox="0 0 12 15" fill="none" xmlns="http://www.w3.org/2000/svg">
<path d="M8.75 3.52368C8.75 3.45493 8.69375 3.39868 8.625 3.39868H2.625C2.55625 3.39868 2.5 3.45493 2.5 3.52368V4.27368C2.5 4.34243 2.55625 4.39868 2.625 4.39868H8.625C8.69375 4.39868 8.75 4.34243 8.75 4.27368V3.52368ZM8.625 5.64868H2.625C2.55625 5.64868 2.5 5.70493 2.5 5.77368V6.52368C2.5 6.59243 2.55625 6.64868 2.625 6.64868H8.625C8.69375 6.64868 8.75 6.59243 8.75 6.52368V5.77368C8.75 5.70493 8.69375 5.64868 8.625 5.64868ZM5.5 7.89868H2.625C2.55625 7.89868 2.5 7.95493 2.5 8.02368V8.77368C2.5 8.84243 2.55625 8.89868 2.625 8.89868H5.5C5.56875 8.89868 5.625 8.84243 5.625 8.77368V8.02368C5.625 7.95493 5.56875 7.89868 5.5 7.89868ZM4.75 12.7112H1.25V1.71118H10V7.08618C10 7.15493 10.0563 7.21118 10.125 7.21118H11C11.0688 7.21118 11.125 7.15493 11.125 7.08618V1.08618C11.125 0.809619 10.9016 0.586182 10.625 0.586182H0.625C0.348438 0.586182 0.125 0.809619 0.125 1.08618V13.3362C0.125 13.6127 0.348438 13.8362 0.625 13.8362H4.75C4.81875 13.8362 4.875 13.7799 4.875 13.7112V12.8362C4.875 12.7674 4.81875 12.7112 4.75 12.7112ZM10.325 11.5487C10.7781 11.1377 11.0625 10.544 11.0625 9.88306C11.0625 8.64087 10.0547 7.63306 8.8125 7.63306C7.57031 7.63306 6.5625 8.64087 6.5625 9.88306C6.5625 10.544 6.84688 11.1377 7.3 11.5487C6.40938 12.0565 5.79688 12.9971 5.75 14.0815C5.74688 14.1518 5.80469 14.2112 5.875 14.2112H6.62656C6.69219 14.2112 6.74688 14.1596 6.75156 14.0924C6.8125 13.0112 7.71406 12.1487 8.8125 12.1487C9.91094 12.1487 10.8125 13.0112 10.8734 14.0924C10.8766 14.1581 10.9313 14.2112 10.9984 14.2112H11.75C11.8219 14.2112 11.8781 14.1518 11.875 14.0815C11.8297 12.9956 11.2156 12.0565 10.325 11.5487ZM8.8125 8.63306C9.50313 8.63306 10.0625 9.19243 10.0625 9.88306C10.0625 10.5737 9.50313 11.1331 8.8125 11.1331C8.12188 11.1331 7.5625 10.5737 7.5625 9.88306C7.5625 9.19243 8.12188 8.63306 8.8125 8.63306Z" fill="#262626"/>
</svg>
