<svg width="14" height="15" viewBox="0 0 14 15" fill="none" xmlns="http://www.w3.org/2000/svg">
<path d="M13.6569 6.56743L13.1944 1.68306C13.171 1.42993 12.9694 1.22993 12.7163 1.20493L7.83191 0.742432H7.82566C7.77566 0.742432 7.73659 0.758057 7.70691 0.787744L0.389719 8.10493C0.375234 8.11939 0.363742 8.13656 0.355901 8.15546C0.348061 8.17436 0.344025 8.19462 0.344025 8.21509C0.344025 8.23555 0.348061 8.25581 0.355901 8.27472C0.363742 8.29362 0.375234 8.31079 0.389719 8.32524L6.07409 14.0096C6.10378 14.0393 6.14284 14.0549 6.18503 14.0549C6.22722 14.0549 6.26628 14.0393 6.29597 14.0096L13.6132 6.69243C13.6444 6.65962 13.66 6.61431 13.6569 6.56743ZM6.18347 12.4409L1.95847 8.21587L8.20378 1.97056L12.0632 2.33618L12.4288 6.19556L6.18347 12.4409ZM9.62566 3.39868C8.86784 3.39868 8.25066 4.01587 8.25066 4.77368C8.25066 5.53149 8.86784 6.14868 9.62566 6.14868C10.3835 6.14868 11.0007 5.53149 11.0007 4.77368C11.0007 4.01587 10.3835 3.39868 9.62566 3.39868ZM9.62566 5.27368C9.34909 5.27368 9.12566 5.05024 9.12566 4.77368C9.12566 4.49712 9.34909 4.27368 9.62566 4.27368C9.90222 4.27368 10.1257 4.49712 10.1257 4.77368C10.1257 5.05024 9.90222 5.27368 9.62566 5.27368Z" fill="#262626"/>
</svg>
